<svg width="40" height="40" viewBox="0 0 40 40" fill="none" xmlns="http://www.w3.org/2000/svg">
<g id="Bridge">
<path id="Vector" d="M35 10.625H31.875V10C31.875 9.655 31.5956 9.375 31.25 9.375C30.9044 9.375 30.625 9.655 30.625 10V10.625H24.375V10C24.375 9.655 24.0956 9.375 23.75 9.375C23.4044 9.375 23.125 9.655 23.125 10V10.625H16.875V10C16.875 9.655 16.595 9.375 16.25 9.375C15.905 9.375 15.625 9.655 15.625 10V10.625H9.375V10C9.375 9.655 9.095 9.375 8.75 9.375C8.405 9.375 8.125 9.655 8.125 10V10.625H5C4.655 10.625 4.375 10.905 4.375 11.25V13.75C4.375 13.9156 4.44063 14.075 4.55813 14.1919L5.625 15.2587V16.25C5.625 16.595 5.905 16.875 6.25 16.875H8.55313C8.28125 17.4444 8.125 18.0781 8.125 18.75V30C8.125 30.3456 8.405 30.625 8.75 30.625C9.095 30.625 9.375 30.3456 9.375 30V18.75C9.375 17.0269 10.7769 15.625 12.5 15.625C14.2231 15.625 15.625 17.0269 15.625 18.75V30C15.625 30.3456 15.905 30.625 16.25 30.625C16.595 30.625 16.875 30.3456 16.875 30V18.75C16.875 17.0269 18.2769 15.625 20 15.625C21.7231 15.625 23.125 17.0269 23.125 18.75V30C23.125 30.3456 23.4044 30.625 23.75 30.625C24.0956 30.625 24.375 30.3456 24.375 30V18.75C24.375 17.0269 25.7769 15.625 27.5 15.625C29.2231 15.625 30.625 17.0269 30.625 18.75V30C30.625 30.3456 30.9044 30.625 31.25 30.625C31.5956 30.625 31.875 30.3456 31.875 30V18.75C31.875 18.0781 31.7181 17.4444 31.4462 16.875H33.75C34.0956 16.875 34.375 16.595 34.375 16.25V15.2587L35.4419 14.1919C35.5 14.1339 35.5461 14.065 35.5775 13.9892C35.6089 13.9134 35.6251 13.8321 35.625 13.75V11.25C35.625 10.905 35.3456 10.625 35 10.625ZM34.375 13.4913L33.3081 14.5581C33.25 14.6161 33.2039 14.685 33.1725 14.7608C33.1411 14.8366 33.1249 14.9179 33.125 15V15.625H30.5562C29.7669 14.8531 28.6887 14.375 27.5 14.375C25.9106 14.375 24.5163 15.2269 23.75 16.4981C22.9837 15.2269 21.5894 14.375 20 14.375C18.4106 14.375 17.0162 15.2269 16.25 16.4981C15.4838 15.2269 14.0894 14.375 12.5 14.375C11.3113 14.375 10.2331 14.8531 9.44375 15.625H6.875V15C6.875 14.8344 6.80937 14.675 6.69187 14.5581L5.625 13.4913V11.875H34.375V13.4913Z" fill="white"/>
</g>
</svg>
