<svg width="1200" height="569" viewBox="0 0 1200 569" fill="none" xmlns="http://www.w3.org/2000/svg">
<g clip-path="url(#clip0_1_10244)">
<rect width="1200" height="569" fill="black"/>
<path d="M1190.68 -128.601H-1.22998V653.602H1190.68V-128.601Z" fill="black"/>
<path opacity="0.1" d="M60.2376 -56.7557H-10.5312V14.0131H60.2376V-56.7557Z" stroke="white" stroke-miterlimit="10"/>
<path opacity="0.1" d="M60.2376 14.2198H-10.5312V84.9887H60.2376V14.2198Z" stroke="white" stroke-miterlimit="10"/>
<path opacity="0.1" d="M60.2376 85.1802H-10.5312V155.949H60.2376V85.1802Z" stroke="white" stroke-miterlimit="10"/>
<path opacity="0.1" d="M60.2376 156.155H-10.5312V226.924H60.2376V156.155Z" stroke="white" stroke-miterlimit="10"/>
<path opacity="0.1" d="M60.2376 227.115H-10.5312V297.884H60.2376V227.115Z" stroke="white" stroke-miterlimit="10"/>
<path opacity="0.1" d="M60.2376 298.077H-10.5312V368.846H60.2376V298.077Z" stroke="white" stroke-miterlimit="10"/>
<path opacity="0.1" d="M60.2376 369.052H-10.5312V439.821H60.2376V369.052Z" stroke="white" stroke-miterlimit="10"/>
<path opacity="0.1" d="M131.479 -56.7557H60.71V14.0131H131.479V-56.7557Z" stroke="white" stroke-miterlimit="10"/>
<path opacity="0.1" d="M131.479 14.2198H60.71V84.9887H131.479V14.2198Z" stroke="white" stroke-miterlimit="10"/>
<path opacity="0.1" d="M131.479 85.1802H60.71V155.949H131.479V85.1802Z" stroke="white" stroke-miterlimit="10"/>
<path opacity="0.1" d="M131.479 156.155H60.71V226.924H131.479V156.155Z" stroke="white" stroke-miterlimit="10"/>
<path opacity="0.1" d="M131.479 227.115H60.71V297.884H131.479V227.115Z" stroke="white" stroke-miterlimit="10"/>
<path opacity="0.1" d="M131.479 298.077H60.71V368.846H131.479V298.077Z" stroke="white" stroke-miterlimit="10"/>
<path opacity="0.1" d="M131.479 369.052H60.71V439.821H131.479V369.052Z" stroke="white" stroke-miterlimit="10"/>
<path opacity="0.1" d="M202.72 -56.7557H131.951V14.0131H202.72V-56.7557Z" stroke="white" stroke-miterlimit="10"/>
<path opacity="0.1" d="M202.72 14.2198H131.951V84.9887H202.72V14.2198Z" stroke="white" stroke-miterlimit="10"/>
<path opacity="0.1" d="M202.72 85.1802H131.951V155.949H202.72V85.1802Z" stroke="white" stroke-miterlimit="10"/>
<path opacity="0.1" d="M202.72 156.155H131.951V226.924H202.72V156.155Z" stroke="white" stroke-miterlimit="10"/>
<path opacity="0.1" d="M202.72 227.115H131.951V297.884H202.72V227.115Z" stroke="white" stroke-miterlimit="10"/>
<path opacity="0.1" d="M202.72 298.077H131.951V368.846H202.72V298.077Z" stroke="white" stroke-miterlimit="10"/>
<path opacity="0.1" d="M202.72 369.052H131.951V439.821H202.72V369.052Z" stroke="white" stroke-miterlimit="10"/>
<path opacity="0.1" d="M273.944 -56.7557H203.175V14.0131H273.944V-56.7557Z" stroke="white" stroke-miterlimit="10"/>
<path opacity="0.1" d="M273.944 14.2198H203.175V84.9887H273.944V14.2198Z" stroke="white" stroke-miterlimit="10"/>
<path opacity="0.1" d="M273.944 85.1802H203.175V155.949H273.944V85.1802Z" stroke="white" stroke-miterlimit="10"/>
<path opacity="0.1" d="M273.944 156.155H203.175V226.924H273.944V156.155Z" stroke="white" stroke-miterlimit="10"/>
<path opacity="0.1" d="M273.944 227.115H203.175V297.884H273.944V227.115Z" stroke="white" stroke-miterlimit="10"/>
<path opacity="0.1" d="M273.944 298.077H203.175V368.846H273.944V298.077Z" stroke="white" stroke-miterlimit="10"/>
<path opacity="0.1" d="M273.944 369.052H203.175V439.821H273.944V369.052Z" stroke="white" stroke-miterlimit="10"/>
<path opacity="0.1" d="M345.185 -56.7557H274.416V14.0131H345.185V-56.7557Z" stroke="white" stroke-miterlimit="10"/>
<path opacity="0.1" d="M345.185 14.2198H274.416V84.9887H345.185V14.2198Z" stroke="white" stroke-miterlimit="10"/>
<path opacity="0.1" d="M345.185 85.1802H274.416V155.949H345.185V85.1802Z" stroke="white" stroke-miterlimit="10"/>
<path opacity="0.1" d="M345.185 156.155H274.416V226.924H345.185V156.155Z" stroke="white" stroke-miterlimit="10"/>
<path opacity="0.1" d="M345.185 227.115H274.416V297.884H345.185V227.115Z" stroke="white" stroke-miterlimit="10"/>
<path opacity="0.1" d="M345.185 298.077H274.416V368.846H345.185V298.077Z" stroke="white" stroke-miterlimit="10"/>
<path opacity="0.1" d="M345.185 369.052H274.416V439.821H345.185V369.052Z" stroke="white" stroke-miterlimit="10"/>
<path opacity="0.1" d="M416.409 -56.7557H345.64V14.0131H416.409V-56.7557Z" stroke="white" stroke-miterlimit="10"/>
<path opacity="0.1" d="M416.409 14.2198H345.64V84.9887H416.409V14.2198Z" stroke="white" stroke-miterlimit="10"/>
<path opacity="0.1" d="M416.409 85.1802H345.64V155.949H416.409V85.1802Z" stroke="white" stroke-miterlimit="10"/>
<path opacity="0.1" d="M416.409 156.155H345.64V226.924H416.409V156.155Z" stroke="white" stroke-miterlimit="10"/>
<path opacity="0.1" d="M416.409 227.115H345.64V297.884H416.409V227.115Z" stroke="white" stroke-miterlimit="10"/>
<path opacity="0.1" d="M416.409 298.077H345.64V368.846H416.409V298.077Z" stroke="white" stroke-miterlimit="10"/>
<path opacity="0.1" d="M416.409 369.052H345.64V439.821H416.409V369.052Z" stroke="white" stroke-miterlimit="10"/>
<path opacity="0.1" d="M487.651 -56.7557H416.882V14.0131H487.651V-56.7557Z" stroke="white" stroke-miterlimit="10"/>
<path opacity="0.1" d="M487.651 14.2198H416.882V84.9887H487.651V14.2198Z" stroke="white" stroke-miterlimit="10"/>
<path opacity="0.1" d="M487.651 85.1802H416.882V155.949H487.651V85.1802Z" stroke="white" stroke-miterlimit="10"/>
<path opacity="0.1" d="M487.651 156.155H416.882V226.924H487.651V156.155Z" stroke="white" stroke-miterlimit="10"/>
<path opacity="0.1" d="M487.651 227.115H416.882V297.884H487.651V227.115Z" stroke="white" stroke-miterlimit="10"/>
<path opacity="0.1" d="M487.651 298.077H416.882V368.846H487.651V298.077Z" stroke="white" stroke-miterlimit="10"/>
<path opacity="0.1" d="M487.651 369.052H416.882V439.821H487.651V369.052Z" stroke="white" stroke-miterlimit="10"/>
<path opacity="0.1" d="M558.88 -56.7557H488.111V14.0131H558.88V-56.7557Z" stroke="white" stroke-miterlimit="10"/>
<path opacity="0.1" d="M558.88 14.2198H488.111V84.9887H558.88V14.2198Z" stroke="white" stroke-miterlimit="10"/>
<path opacity="0.1" d="M558.88 85.1802H488.111V155.949H558.88V85.1802Z" stroke="white" stroke-miterlimit="10"/>
<path opacity="0.1" d="M558.88 156.155H488.111V226.924H558.88V156.155Z" stroke="white" stroke-miterlimit="10"/>
<path opacity="0.1" d="M558.88 227.115H488.111V297.884H558.88V227.115Z" stroke="white" stroke-miterlimit="10"/>
<path opacity="0.1" d="M558.88 298.077H488.111V368.846H558.88V298.077Z" stroke="white" stroke-miterlimit="10"/>
<path opacity="0.1" d="M558.88 369.052H488.111V439.821H558.88V369.052Z" stroke="white" stroke-miterlimit="10"/>
<path opacity="0.1" d="M630.121 -56.7557H559.353V14.0131H630.121V-56.7557Z" stroke="white" stroke-miterlimit="10"/>
<path opacity="0.1" d="M630.121 14.2198H559.353V84.9887H630.121V14.2198Z" stroke="white" stroke-miterlimit="10"/>
<path opacity="0.1" d="M630.121 85.1802H559.353V155.949H630.121V85.1802Z" stroke="white" stroke-miterlimit="10"/>
<path opacity="0.1" d="M630.121 156.155H559.353V226.924H630.121V156.155Z" stroke="white" stroke-miterlimit="10"/>
<path opacity="0.1" d="M630.121 227.115H559.353V297.884H630.121V227.115Z" stroke="white" stroke-miterlimit="10"/>
<path opacity="0.1" d="M630.121 298.077H559.353V368.846H630.121V298.077Z" stroke="white" stroke-miterlimit="10"/>
<path opacity="0.1" d="M630.121 369.052H559.353V439.821H630.121V369.052Z" stroke="white" stroke-miterlimit="10"/>
<path opacity="0.1" d="M701.363 -56.7557H630.594V14.0131H701.363V-56.7557Z" stroke="white" stroke-miterlimit="10"/>
<path opacity="0.1" d="M701.363 14.2198H630.594V84.9887H701.363V14.2198Z" stroke="white" stroke-miterlimit="10"/>
<path opacity="0.1" d="M701.363 85.1802H630.594V155.949H701.363V85.1802Z" stroke="white" stroke-miterlimit="10"/>
<path opacity="0.1" d="M701.363 156.155H630.594V226.924H701.363V156.155Z" stroke="white" stroke-miterlimit="10"/>
<path opacity="0.1" d="M701.363 227.115H630.594V297.884H701.363V227.115Z" stroke="white" stroke-miterlimit="10"/>
<path opacity="0.1" d="M701.363 298.077H630.594V368.846H701.363V298.077Z" stroke="white" stroke-miterlimit="10"/>
<path opacity="0.1" d="M701.363 369.052H630.594V439.821H701.363V369.052Z" stroke="white" stroke-miterlimit="10"/>
<path opacity="0.1" d="M772.586 -56.7557H701.817V14.0131H772.586V-56.7557Z" stroke="white" stroke-miterlimit="10"/>
<path opacity="0.1" d="M772.586 14.2198H701.817V84.9887H772.586V14.2198Z" stroke="white" stroke-miterlimit="10"/>
<path opacity="0.1" d="M772.586 85.1802H701.817V155.949H772.586V85.1802Z" stroke="white" stroke-miterlimit="10"/>
<path opacity="0.1" d="M772.586 156.155H701.817V226.924H772.586V156.155Z" stroke="white" stroke-miterlimit="10"/>
<path opacity="0.1" d="M772.586 227.115H701.817V297.884H772.586V227.115Z" stroke="white" stroke-miterlimit="10"/>
<path opacity="0.1" d="M772.586 298.077H701.817V368.846H772.586V298.077Z" stroke="white" stroke-miterlimit="10"/>
<path opacity="0.1" d="M772.586 369.052H701.817V439.821H772.586V369.052Z" stroke="white" stroke-miterlimit="10"/>
<path opacity="0.1" d="M843.827 -56.7557H773.059V14.0131H843.827V-56.7557Z" stroke="white" stroke-miterlimit="10"/>
<path opacity="0.1" d="M843.827 14.2198H773.059V84.9887H843.827V14.2198Z" stroke="white" stroke-miterlimit="10"/>
<path opacity="0.1" d="M843.827 85.1802H773.059V155.949H843.827V85.1802Z" stroke="white" stroke-miterlimit="10"/>
<path opacity="0.1" d="M843.827 156.155H773.059V226.924H843.827V156.155Z" stroke="white" stroke-miterlimit="10"/>
<path opacity="0.1" d="M843.827 227.115H773.059V297.884H843.827V227.115Z" stroke="white" stroke-miterlimit="10"/>
<path opacity="0.1" d="M843.827 298.077H773.059V368.846H843.827V298.077Z" stroke="white" stroke-miterlimit="10"/>
<path opacity="0.1" d="M843.827 369.052H773.059V439.821H843.827V369.052Z" stroke="white" stroke-miterlimit="10"/>
<path opacity="0.1" d="M915.052 -56.7557H844.283V14.0131H915.052V-56.7557Z" stroke="white" stroke-miterlimit="10"/>
<path opacity="0.1" d="M915.052 14.2198H844.283V84.9887H915.052V14.2198Z" stroke="white" stroke-miterlimit="10"/>
<path opacity="0.1" d="M915.052 85.1802H844.283V155.949H915.052V85.1802Z" stroke="white" stroke-miterlimit="10"/>
<path opacity="0.1" d="M915.052 156.155H844.283V226.924H915.052V156.155Z" stroke="white" stroke-miterlimit="10"/>
<path opacity="0.1" d="M915.052 227.115H844.283V297.884H915.052V227.115Z" stroke="white" stroke-miterlimit="10"/>
<path opacity="0.1" d="M915.052 298.077H844.283V368.846H915.052V298.077Z" stroke="white" stroke-miterlimit="10"/>
<path opacity="0.1" d="M915.052 369.052H844.283V439.821H915.052V369.052Z" stroke="white" stroke-miterlimit="10"/>
<path opacity="0.1" d="M986.293 -56.7557H915.524V14.0131H986.293V-56.7557Z" stroke="white" stroke-miterlimit="10"/>
<path opacity="0.1" d="M986.293 14.2198H915.524V84.9887H986.293V14.2198Z" stroke="white" stroke-miterlimit="10"/>
<path opacity="0.1" d="M986.293 85.1802H915.524V155.949H986.293V85.1802Z" stroke="white" stroke-miterlimit="10"/>
<path opacity="0.1" d="M986.293 156.155H915.524V226.924H986.293V156.155Z" stroke="white" stroke-miterlimit="10"/>
<path opacity="0.1" d="M986.293 227.115H915.524V297.884H986.293V227.115Z" stroke="white" stroke-miterlimit="10"/>
<path opacity="0.1" d="M986.293 298.077H915.524V368.846H986.293V298.077Z" stroke="white" stroke-miterlimit="10"/>
<path opacity="0.1" d="M986.293 369.052H915.524V439.821H986.293V369.052Z" stroke="white" stroke-miterlimit="10"/>
<path opacity="0.1" d="M1057.52 -56.7557H986.753V14.0131H1057.52V-56.7557Z" stroke="white" stroke-miterlimit="10"/>
<path opacity="0.1" d="M1057.52 14.2198H986.753V84.9887H1057.52V14.2198Z" stroke="white" stroke-miterlimit="10"/>
<path opacity="0.1" d="M1057.52 85.1802H986.753V155.949H1057.52V85.1802Z" stroke="white" stroke-miterlimit="10"/>
<path opacity="0.1" d="M1057.52 156.155H986.753V226.924H1057.52V156.155Z" stroke="white" stroke-miterlimit="10"/>
<path opacity="0.1" d="M1057.52 227.115H986.753V297.884H1057.52V227.115Z" stroke="white" stroke-miterlimit="10"/>
<path opacity="0.1" d="M1057.52 298.077H986.753V368.846H1057.52V298.077Z" stroke="white" stroke-miterlimit="10"/>
<path opacity="0.1" d="M1057.52 369.052H986.753V439.821H1057.52V369.052Z" stroke="white" stroke-miterlimit="10"/>
<path opacity="0.1" d="M1128.76 -56.7557H1057.99V14.0131H1128.76V-56.7557Z" stroke="white" stroke-miterlimit="10"/>
<path opacity="0.1" d="M1128.76 14.2198H1057.99V84.9887H1128.76V14.2198Z" stroke="white" stroke-miterlimit="10"/>
<path opacity="0.1" d="M1128.76 85.1802H1057.99V155.949H1128.76V85.1802Z" stroke="white" stroke-miterlimit="10"/>
<path opacity="0.1" d="M1128.76 156.155H1057.99V226.924H1128.76V156.155Z" stroke="white" stroke-miterlimit="10"/>
<path opacity="0.1" d="M1128.76 227.115H1057.99V297.884H1128.76V227.115Z" stroke="white" stroke-miterlimit="10"/>
<path opacity="0.1" d="M1128.76 298.077H1057.99V368.846H1128.76V298.077Z" stroke="white" stroke-miterlimit="10"/>
<path opacity="0.1" d="M1128.76 369.052H1057.99V439.821H1128.76V369.052Z" stroke="white" stroke-miterlimit="10"/>
<path opacity="0.1" d="M1200 -56.7557H1129.23V14.0131H1200V-56.7557Z" stroke="white" stroke-miterlimit="10"/>
<path opacity="0.1" d="M1200 14.2198H1129.23V84.9887H1200V14.2198Z" stroke="white" stroke-miterlimit="10"/>
<path opacity="0.1" d="M1200 85.1802H1129.23V155.949H1200V85.1802Z" stroke="white" stroke-miterlimit="10"/>
<path opacity="0.1" d="M1200 156.155H1129.23V226.924H1200V156.155Z" stroke="white" stroke-miterlimit="10"/>
<path opacity="0.1" d="M1200 227.115H1129.23V297.884H1200V227.115Z" stroke="white" stroke-miterlimit="10"/>
<path opacity="0.1" d="M1200 298.077H1129.23V368.846H1200V298.077Z" stroke="white" stroke-miterlimit="10"/>
<path opacity="0.1" d="M1200 369.052H1129.23V439.821H1200V369.052Z" stroke="white" stroke-miterlimit="10"/>
<path opacity="0.1" d="M60.2376 440.012H-10.5312V510.781H60.2376V440.012Z" stroke="white" stroke-miterlimit="10"/>
<path opacity="0.1" d="M131.479 440.012H60.71V510.781H131.479V440.012Z" stroke="white" stroke-miterlimit="10"/>
<path opacity="0.1" d="M202.72 440.012H131.951V510.781H202.72V440.012Z" stroke="white" stroke-miterlimit="10"/>
<path opacity="0.1" d="M273.944 440.012H203.175V510.781H273.944V440.012Z" stroke="white" stroke-miterlimit="10"/>
<path opacity="0.1" d="M345.185 440.012H274.416V510.781H345.185V440.012Z" stroke="white" stroke-miterlimit="10"/>
<path opacity="0.1" d="M416.409 440.012H345.64V510.781H416.409V440.012Z" stroke="white" stroke-miterlimit="10"/>
<path opacity="0.1" d="M487.651 440.012H416.882V510.781H487.651V440.012Z" stroke="white" stroke-miterlimit="10"/>
<path opacity="0.1" d="M558.88 440.012H488.111V510.781H558.88V440.012Z" stroke="white" stroke-miterlimit="10"/>
<path opacity="0.1" d="M630.121 440.012H559.353V510.781H630.121V440.012Z" stroke="white" stroke-miterlimit="10"/>
<path opacity="0.1" d="M701.363 440.012H630.594V510.781H701.363V440.012Z" stroke="white" stroke-miterlimit="10"/>
<path opacity="0.1" d="M772.586 440.012H701.817V510.781H772.586V440.012Z" stroke="white" stroke-miterlimit="10"/>
<path opacity="0.1" d="M843.827 440.012H773.059V510.781H843.827V440.012Z" stroke="white" stroke-miterlimit="10"/>
<path opacity="0.1" d="M915.052 440.012H844.283V510.781H915.052V440.012Z" stroke="white" stroke-miterlimit="10"/>
<path opacity="0.1" d="M986.293 440.012H915.524V510.781H986.293V440.012Z" stroke="white" stroke-miterlimit="10"/>
<path opacity="0.1" d="M1057.52 440.012H986.753V510.781H1057.52V440.012Z" stroke="white" stroke-miterlimit="10"/>
<path opacity="0.1" d="M1128.76 440.012H1057.99V510.781H1128.76V440.012Z" stroke="white" stroke-miterlimit="10"/>
<path opacity="0.1" d="M1200 440.012H1129.23V510.781H1200V440.012Z" stroke="white" stroke-miterlimit="10"/>
<path opacity="0.1" d="M60.2376 510.987H-10.5312V581.756H60.2376V510.987Z" stroke="white" stroke-miterlimit="10"/>
<path opacity="0.1" d="M131.479 510.987H60.71V581.756H131.479V510.987Z" stroke="white" stroke-miterlimit="10"/>
<path opacity="0.1" d="M202.72 510.987H131.951V581.756H202.72V510.987Z" stroke="white" stroke-miterlimit="10"/>
<path opacity="0.1" d="M273.944 510.987H203.175V581.756H273.944V510.987Z" stroke="white" stroke-miterlimit="10"/>
<path opacity="0.1" d="M345.185 510.987H274.416V581.756H345.185V510.987Z" stroke="white" stroke-miterlimit="10"/>
<path opacity="0.1" d="M416.409 510.987H345.64V581.756H416.409V510.987Z" stroke="white" stroke-miterlimit="10"/>
<path opacity="0.1" d="M487.651 510.987H416.882V581.756H487.651V510.987Z" stroke="white" stroke-miterlimit="10"/>
<path opacity="0.1" d="M558.88 510.987H488.111V581.756H558.88V510.987Z" stroke="white" stroke-miterlimit="10"/>
<path opacity="0.1" d="M630.121 510.987H559.353V581.756H630.121V510.987Z" stroke="white" stroke-miterlimit="10"/>
<path opacity="0.1" d="M701.363 510.987H630.594V581.756H701.363V510.987Z" stroke="white" stroke-miterlimit="10"/>
<path opacity="0.1" d="M772.586 510.987H701.817V581.756H772.586V510.987Z" stroke="white" stroke-miterlimit="10"/>
<path opacity="0.1" d="M843.827 510.987H773.059V581.756H843.827V510.987Z" stroke="white" stroke-miterlimit="10"/>
<path opacity="0.1" d="M915.052 510.987H844.283V581.756H915.052V510.987Z" stroke="white" stroke-miterlimit="10"/>
<path opacity="0.1" d="M986.293 510.987H915.524V581.756H986.293V510.987Z" stroke="white" stroke-miterlimit="10"/>
<path opacity="0.1" d="M1057.52 510.987H986.753V581.756H1057.52V510.987Z" stroke="white" stroke-miterlimit="10"/>
<path opacity="0.1" d="M1128.76 510.987H1057.99V581.756H1128.76V510.987Z" stroke="white" stroke-miterlimit="10"/>
<path opacity="0.1" d="M1200 510.987H1129.23V581.756H1200V510.987Z" stroke="white" stroke-miterlimit="10"/>
<path d="M0 3H88V5L80 11H0V3Z" fill="white"/>
<rect x="88" y="3" width="1112" height="2" fill="white"/>
<g filter="url(#filter0_d_1_10244)">
<rect x="1070" y="537" width="18" height="15" fill="white"/>
</g>
<path fill-rule="evenodd" clip-rule="evenodd" d="M1083.41 545.25C1083.69 545.25 1083.92 545.442 1083.92 545.68V546.578C1083.92 546.982 1083.73 547.37 1083.39 547.655C1083.04 547.941 1082.58 548.102 1082.09 548.102H1081.02C1080.73 548.102 1080.5 547.909 1080.5 547.672C1080.5 547.435 1080.73 547.242 1081.02 547.242H1082.09C1082.31 547.242 1082.51 547.172 1082.66 547.048C1082.81 546.923 1082.89 546.754 1082.89 546.578V545.68C1082.89 545.442 1083.12 545.25 1083.41 545.25Z" fill="#242424"/>
<path fill-rule="evenodd" clip-rule="evenodd" d="M1080.5 540.328C1080.5 540.091 1080.73 539.898 1081.02 539.898H1082.09C1082.58 539.898 1083.04 540.059 1083.39 540.345C1083.73 540.63 1083.92 541.018 1083.92 541.422V542.32C1083.92 542.558 1083.69 542.75 1083.41 542.75C1083.12 542.75 1082.89 542.558 1082.89 542.32V541.422C1082.89 541.246 1082.81 541.077 1082.66 540.952C1082.51 540.828 1082.31 540.758 1082.09 540.758H1081.02C1080.73 540.758 1080.5 540.565 1080.5 540.328Z" fill="#242424"/>
<path fill-rule="evenodd" clip-rule="evenodd" d="M1074.59 545.25C1074.88 545.25 1075.11 545.442 1075.11 545.68V546.578C1075.11 546.754 1075.19 546.923 1075.34 547.048C1075.49 547.172 1075.69 547.242 1075.91 547.242H1076.98C1077.27 547.242 1077.5 547.435 1077.5 547.672C1077.5 547.909 1077.27 548.102 1076.98 548.102H1075.91C1075.42 548.102 1074.96 547.941 1074.61 547.655C1074.27 547.37 1074.08 546.982 1074.08 546.578V545.68C1074.08 545.442 1074.31 545.25 1074.59 545.25Z" fill="#242424"/>
<path fill-rule="evenodd" clip-rule="evenodd" d="M1075.91 540.758C1075.69 540.758 1075.49 540.828 1075.34 540.952C1075.19 541.077 1075.11 541.246 1075.11 541.422V542.32C1075.11 542.558 1074.88 542.75 1074.59 542.75C1074.31 542.75 1074.08 542.558 1074.08 542.32V541.422C1074.08 541.018 1074.27 540.63 1074.61 540.345C1074.96 540.059 1075.42 539.898 1075.91 539.898H1076.98C1077.27 539.898 1077.5 540.091 1077.5 540.328C1077.5 540.565 1077.27 540.758 1076.98 540.758H1075.91Z" fill="#242424"/>
<path d="M1114.5 621.437C1280.67 561.908 1400.87 473.165 1382.97 423.223C1365.08 373.28 1215.88 381.052 1049.71 440.581C883.543 500.109 763.343 588.853 781.235 638.795C799.127 688.737 948.335 680.966 1114.5 621.437Z" stroke="#A0A0A0" stroke-width="0.54989" stroke-miterlimit="10"/>
<path d="M1127.71 658.298C1361.6 574.506 1530.79 449.589 1505.61 379.289C1480.42 308.989 1270.4 319.927 1036.5 403.719C802.609 487.511 633.416 612.428 658.601 682.728C683.786 753.028 893.811 742.09 1127.71 658.298Z" stroke="#A0A0A0" stroke-width="0.54989" stroke-miterlimit="10"/>
<path d="M1103.62 591.081C1214 551.54 1293.84 492.591 1281.95 459.414C1270.06 426.237 1170.95 431.396 1060.58 470.937C950.209 510.478 870.37 569.427 882.255 602.604C894.141 635.781 993.251 630.622 1103.62 591.081Z" stroke="#A0A0A0" stroke-width="0.54989" stroke-miterlimit="10"/>
<path fill-rule="evenodd" clip-rule="evenodd" d="M859 490L858.998 490L858.991 490L858.98 490L858.964 490.001L858.944 490.002L858.919 490.003L858.89 490.005L858.857 490.008L858.819 490.011L858.776 490.015L858.73 490.02L858.679 490.026L858.623 490.033L858.564 490.041L858.5 490.05L858.433 490.061L858.361 490.073L858.285 490.086L858.205 490.101L858.121 490.118L858.033 490.136L857.941 490.156L857.846 490.178L857.747 490.201L857.644 490.227L857.538 490.255L857.428 490.285L857.315 490.317L857.198 490.351L857.079 490.387L856.956 490.426L856.83 490.467L856.701 490.51L856.569 490.556L856.434 490.605L856.296 490.656L856.156 490.709L856.013 490.765L855.868 490.824L855.721 490.886L855.571 490.95L855.419 491.017L855.265 491.087L855.109 491.159L854.951 491.234L854.792 491.312L854.631 491.393L854.468 491.477L854.304 491.564L854.138 491.653L853.971 491.745L853.803 491.84L853.635 491.938L853.465 492.039L853.294 492.142L853.123 492.248L852.951 492.357L852.779 492.469L852.606 492.583L852.433 492.7L852.26 492.82L852.087 492.942L851.914 493.067L851.741 493.195L851.568 493.325L851.395 493.457L851.223 493.592L851.052 493.729L850.881 493.869L850.711 494.01L850.542 494.154L850.374 494.3L850.207 494.448L850.041 494.599L849.876 494.751L849.712 494.905L849.55 495.06L849.389 495.218L849.23 495.377L849.073 495.537L848.917 495.699L848.763 495.863L848.611 496.028L848.46 496.193L848.312 496.361L848.166 496.529L848.022 496.698L847.88 496.868L847.74 497.038L847.603 497.21L847.468 497.382L847.335 497.554L847.205 497.727L847.077 497.9L846.952 498.073L846.83 498.246L846.71 498.419L846.592 498.592L846.478 498.765L846.366 498.937L846.257 499.109L846.15 499.281L846.047 499.451L845.946 499.621L845.848 499.79L845.753 499.958L845.66 500.125L845.571 500.29L845.484 500.455L845.4 500.618L845.319 500.779L845.24 500.939L845.165 501.097L845.092 501.253L845.022 501.407L844.955 501.559L844.891 501.709L844.829 501.857L844.77 502.002L844.714 502.145L844.66 502.285L844.609 502.423L844.56 502.558L844.514 502.69L844.47 502.819L844.429 502.946L844.39 503.069L844.354 503.189L844.319 503.306L844.287 503.419L844.257 503.529L844.229 503.636L844.203 503.739L844.18 503.838L844.158 503.934L844.137 504.026L844.119 504.114L844.102 504.198L844.087 504.278L844.074 504.355L844.062 504.427L844.051 504.495L844.041 504.559L844.033 504.619L844.026 504.674L844.02 504.726L844.015 504.773L844.011 504.815L844.008 504.854L844.005 504.888L844.003 504.917L844.002 504.942L844.001 504.963L844 504.979L844 504.99L844 504.997L844 505L844 504.998L844 504.992L844 504.981L843.999 504.965L843.998 504.946L843.997 504.921L843.995 504.893L843.993 504.859L843.989 504.822L843.985 504.78L843.981 504.734L843.975 504.683L843.968 504.628L843.96 504.569L843.951 504.506L843.94 504.438L843.928 504.367L843.915 504.291L843.9 504.211L843.884 504.128L843.866 504.04L843.846 503.949L843.824 503.854L843.8 503.755L843.775 503.652L843.747 503.546L843.718 503.437L843.686 503.324L843.652 503.208L843.616 503.088L843.577 502.966L843.536 502.84L843.493 502.711L843.447 502.579L843.399 502.445L843.348 502.307L843.295 502.167L843.239 502.025L843.18 501.88L843.119 501.733L843.055 501.583L842.988 501.431L842.919 501.277L842.847 501.122L842.772 500.964L842.694 500.805L842.613 500.643L842.53 500.481L842.443 500.317L842.354 500.151L842.262 499.985L842.168 499.817L842.07 499.648L841.97 499.478L841.866 499.308L841.76 499.137L841.652 498.965L841.54 498.792L841.426 498.62L841.309 498.447L841.19 498.274L841.067 498.1L840.943 497.927L840.815 497.754L840.686 497.581L840.553 497.409L840.419 497.237L840.282 497.066L840.142 496.895L840.001 496.725L839.857 496.556L839.711 496.387L839.563 496.22L839.413 496.054L839.261 495.889L839.108 495.725L838.952 495.563L838.795 495.402L838.636 495.243L838.476 495.085L838.314 494.929L838.15 494.775L837.986 494.623L837.82 494.472L837.653 494.324L837.485 494.177L837.316 494.033L837.146 493.891L836.975 493.751L836.804 493.614L836.632 493.478L836.46 493.346L836.287 493.215L836.114 493.087L835.941 492.962L835.768 492.839L835.595 492.719L835.421 492.602L835.249 492.487L835.076 492.375L834.904 492.265L834.733 492.159L834.562 492.055L834.392 491.954L834.223 491.855L834.055 491.76L833.888 491.667L833.723 491.578L833.558 491.491L833.395 491.406L833.234 491.325L833.074 491.247L832.916 491.171L832.76 491.098L832.605 491.028L832.453 490.96L832.303 490.896L832.155 490.834L832.009 490.775L831.866 490.718L831.726 490.664L831.588 490.613L831.453 490.564L831.32 490.517L831.191 490.474L831.064 490.432L830.941 490.393L830.82 490.356L830.703 490.322L830.59 490.29L830.479 490.259L830.373 490.231L830.269 490.205L830.17 490.181L830.074 490.159L829.981 490.139L829.893 490.12L829.808 490.104L829.728 490.088L829.651 490.075L829.579 490.062L829.51 490.052L829.446 490.042L829.386 490.034L829.33 490.027L829.278 490.021L829.231 490.016L829.188 490.011L829.149 490.008L829.115 490.005L829.085 490.003L829.06 490.002L829.039 490.001L829.022 490L829.01 490L829.003 490L829 490L829.002 490L829.008 490L829.018 490L829.033 489.999L829.053 489.998L829.077 489.997L829.105 489.995L829.138 489.993L829.175 489.99L829.217 489.986L829.263 489.981L829.313 489.975L829.367 489.968L829.426 489.961L829.489 489.951L829.556 489.941L829.628 489.929L829.703 489.916L829.782 489.901L829.866 489.885L829.953 489.867L830.044 489.847L830.139 489.826L830.237 489.802L830.339 489.777L830.445 489.75L830.554 489.72L830.667 489.689L830.783 489.655L830.902 489.619L831.025 489.58L831.15 489.54L831.279 489.497L831.41 489.451L831.544 489.403L831.682 489.352L831.821 489.299L831.964 489.244L832.108 489.185L832.256 489.124L832.405 489.06L832.557 488.994L832.71 488.925L832.866 488.853L833.023 488.778L833.183 488.7L833.344 488.62L833.506 488.536L833.67 488.45L833.835 488.361L834.002 488.27L834.17 488.175L834.338 488.078L834.508 487.978L834.679 487.875L834.85 487.769L835.021 487.66L835.194 487.549L835.366 487.435L835.539 487.318L835.712 487.199L835.886 487.077L836.059 486.953L836.232 486.826L836.405 486.696L836.577 486.564L836.749 486.43L836.921 486.293L837.092 486.154L837.262 486.012L837.431 485.869L837.599 485.723L837.767 485.575L837.933 485.425L838.098 485.274L838.262 485.12L838.424 484.965L838.585 484.807L838.744 484.649L838.902 484.488L839.058 484.326L839.213 484.163L839.365 483.999L839.516 483.833L839.664 483.666L839.811 483.498L839.955 483.329L840.098 483.159L840.238 482.989L840.375 482.817L840.511 482.646L840.644 482.473L840.774 482.301L840.902 482.128L841.028 481.955L841.151 481.781L841.271 481.608L841.389 481.435L841.504 481.262L841.616 481.09L841.726 480.918L841.833 480.747L841.937 480.576L842.038 480.406L842.137 480.237L842.232 480.069L842.325 479.902L842.415 479.736L842.503 479.571L842.587 479.408L842.668 479.247L842.747 479.087L842.823 478.928L842.896 478.772L842.967 478.617L843.034 478.465L843.099 478.315L843.161 478.167L843.221 478.021L843.277 477.878L843.332 477.737L843.383 477.599L843.432 477.463L843.479 477.331L843.523 477.201L843.565 477.074L843.604 476.95L843.641 476.83L843.675 476.713L843.708 476.599L843.738 476.488L843.766 476.381L843.793 476.277L843.817 476.177L843.839 476.081L843.859 475.988L843.878 475.9L843.895 475.815L843.91 475.734L843.924 475.657L843.937 475.584L843.948 475.515L843.957 475.451L843.965 475.39L843.973 475.334L843.979 475.282L843.984 475.234L843.988 475.191L843.992 475.152L843.994 475.117L843.996 475.087L843.998 475.062L843.999 475.04L843.999 475.023L844 475.011L844 475.003L844 475L844 475.001L844 475.007L844 475.017L844.001 475.032L844.002 475.051L844.003 475.074L844.005 475.102L844.007 475.135L844.01 475.172L844.014 475.213L844.019 475.259L844.024 475.309L844.031 475.363L844.039 475.421L844.048 475.484L844.058 475.551L844.07 475.622L844.083 475.697L844.097 475.776L844.113 475.859L844.131 475.946L844.151 476.036L844.172 476.131L844.196 476.229L844.221 476.331L844.248 476.436L844.277 476.545L844.309 476.658L844.342 476.773L844.378 476.892L844.416 477.015L844.457 477.14L844.5 477.268L844.545 477.399L844.593 477.534L844.643 477.67L844.696 477.81L844.752 477.952L844.81 478.097L844.871 478.244L844.934 478.393L845.001 478.544L845.07 478.698L845.142 478.853L845.216 479.011L845.294 479.17L845.374 479.331L845.457 479.493L845.543 479.657L845.631 479.822L845.723 479.989L845.817 480.156L845.914 480.325L846.014 480.494L846.117 480.665L846.223 480.836L846.331 481.008L846.442 481.18L846.556 481.353L846.672 481.526L846.791 481.699L846.913 481.872L847.037 482.045L847.164 482.218L847.293 482.391L847.425 482.563L847.56 482.735L847.696 482.907L847.835 483.078L847.976 483.248L848.12 483.417L848.265 483.586L848.413 483.753L848.563 483.92L848.714 484.085L848.868 484.249L849.023 484.411L849.18 484.572L849.339 484.732L849.499 484.89L849.66 485.046L849.824 485.2L849.988 485.353L850.154 485.504L850.321 485.653L850.488 485.799L850.657 485.944L850.827 486.086L850.998 486.227L851.169 486.364L851.341 486.5L851.513 486.633L851.685 486.764L851.858 486.892L852.031 487.018L852.205 487.141L852.378 487.262L852.551 487.38L852.724 487.495L852.896 487.608L853.068 487.717L853.24 487.824L853.411 487.929L853.581 488.03L853.75 488.129L853.918 488.225L854.085 488.318L854.251 488.408L854.416 488.496L854.579 488.58L854.741 488.662L854.901 488.741L855.059 488.817L855.216 488.89L855.37 488.961L855.523 489.029L855.673 489.094L855.822 489.156L855.967 489.216L856.111 489.273L856.252 489.327L856.39 489.379L856.526 489.428L856.659 489.475L856.789 489.519L856.916 489.561L857.04 489.601L857.161 489.638L857.278 489.673L857.392 489.705L857.503 489.736L857.611 489.764L857.714 489.791L857.815 489.815L857.911 489.837L858.004 489.858L858.093 489.877L858.178 489.894L858.26 489.909L858.337 489.923L858.41 489.936L858.479 489.947L858.544 489.956L858.605 489.965L858.662 489.972L858.714 489.978L858.762 489.984L858.806 489.988L858.845 489.991L858.88 489.994L858.91 489.996L858.936 489.998L858.958 489.999L858.975 489.999L858.988 490L858.996 490L859 490L859 490Z" fill="white"/>
<path fill-rule="evenodd" clip-rule="evenodd" d="M1052 440L1052 440L1051.99 440L1051.98 440L1051.96 440.001L1051.94 440.002L1051.92 440.003L1051.89 440.005L1051.86 440.008L1051.82 440.011L1051.78 440.015L1051.73 440.02L1051.68 440.026L1051.62 440.033L1051.56 440.041L1051.5 440.05L1051.43 440.061L1051.36 440.073L1051.28 440.086L1051.2 440.101L1051.12 440.118L1051.03 440.136L1050.94 440.156L1050.85 440.178L1050.75 440.201L1050.64 440.227L1050.54 440.255L1050.43 440.285L1050.31 440.317L1050.2 440.351L1050.08 440.387L1049.96 440.426L1049.83 440.467L1049.7 440.51L1049.57 440.556L1049.43 440.605L1049.3 440.656L1049.16 440.709L1049.01 440.765L1048.87 440.824L1048.72 440.886L1048.57 440.95L1048.42 441.017L1048.27 441.087L1048.11 441.159L1047.95 441.234L1047.79 441.312L1047.63 441.393L1047.47 441.477L1047.3 441.564L1047.14 441.653L1046.97 441.745L1046.8 441.84L1046.63 441.938L1046.46 442.039L1046.29 442.142L1046.12 442.248L1045.95 442.357L1045.78 442.469L1045.61 442.583L1045.43 442.7L1045.26 442.82L1045.09 442.942L1044.91 443.067L1044.74 443.195L1044.57 443.325L1044.4 443.457L1044.22 443.592L1044.05 443.729L1043.88 443.869L1043.71 444.01L1043.54 444.154L1043.37 444.3L1043.21 444.448L1043.04 444.599L1042.88 444.751L1042.71 444.905L1042.55 445.06L1042.39 445.218L1042.23 445.377L1042.07 445.537L1041.92 445.699L1041.76 445.863L1041.61 446.028L1041.46 446.193L1041.31 446.361L1041.17 446.529L1041.02 446.698L1040.88 446.868L1040.74 447.038L1040.6 447.21L1040.47 447.382L1040.34 447.554L1040.21 447.727L1040.08 447.9L1039.95 448.073L1039.83 448.246L1039.71 448.419L1039.59 448.592L1039.48 448.765L1039.37 448.937L1039.26 449.109L1039.15 449.281L1039.05 449.451L1038.95 449.621L1038.85 449.79L1038.75 449.958L1038.66 450.125L1038.57 450.29L1038.48 450.455L1038.4 450.618L1038.32 450.779L1038.24 450.939L1038.17 451.097L1038.09 451.253L1038.02 451.407L1037.96 451.559L1037.89 451.709L1037.83 451.857L1037.77 452.002L1037.71 452.145L1037.66 452.285L1037.61 452.423L1037.56 452.558L1037.51 452.69L1037.47 452.819L1037.43 452.946L1037.39 453.069L1037.35 453.189L1037.32 453.306L1037.29 453.419L1037.26 453.529L1037.23 453.636L1037.2 453.739L1037.18 453.838L1037.16 453.934L1037.14 454.026L1037.12 454.114L1037.1 454.198L1037.09 454.278L1037.07 454.355L1037.06 454.427L1037.05 454.495L1037.04 454.559L1037.03 454.619L1037.03 454.674L1037.02 454.726L1037.02 454.773L1037.01 454.815L1037.01 454.854L1037.01 454.888L1037 454.917L1037 454.942L1037 454.963L1037 454.979L1037 454.99L1037 454.997L1037 455L1037 454.998L1037 454.992L1037 454.981L1037 454.965L1037 454.946L1037 454.921L1037 454.893L1036.99 454.859L1036.99 454.822L1036.99 454.78L1036.98 454.734L1036.97 454.683L1036.97 454.628L1036.96 454.569L1036.95 454.506L1036.94 454.438L1036.93 454.367L1036.92 454.291L1036.9 454.211L1036.88 454.128L1036.87 454.04L1036.85 453.949L1036.82 453.854L1036.8 453.755L1036.77 453.652L1036.75 453.546L1036.72 453.437L1036.69 453.324L1036.65 453.208L1036.62 453.088L1036.58 452.966L1036.54 452.84L1036.49 452.711L1036.45 452.579L1036.4 452.445L1036.35 452.307L1036.3 452.167L1036.24 452.025L1036.18 451.88L1036.12 451.733L1036.06 451.583L1035.99 451.431L1035.92 451.277L1035.85 451.122L1035.77 450.964L1035.69 450.805L1035.61 450.643L1035.53 450.481L1035.44 450.317L1035.35 450.151L1035.26 449.985L1035.17 449.817L1035.07 449.648L1034.97 449.478L1034.87 449.308L1034.76 449.137L1034.65 448.965L1034.54 448.792L1034.43 448.62L1034.31 448.447L1034.19 448.274L1034.07 448.1L1033.94 447.927L1033.82 447.754L1033.69 447.581L1033.55 447.409L1033.42 447.237L1033.28 447.066L1033.14 446.895L1033 446.725L1032.86 446.556L1032.71 446.387L1032.56 446.22L1032.41 446.054L1032.26 445.889L1032.11 445.725L1031.95 445.563L1031.79 445.402L1031.64 445.243L1031.48 445.085L1031.31 444.929L1031.15 444.775L1030.99 444.623L1030.82 444.472L1030.65 444.324L1030.48 444.177L1030.32 444.033L1030.15 443.891L1029.98 443.751L1029.8 443.614L1029.63 443.478L1029.46 443.346L1029.29 443.215L1029.11 443.087L1028.94 442.962L1028.77 442.839L1028.59 442.719L1028.42 442.602L1028.25 442.487L1028.08 442.375L1027.9 442.265L1027.73 442.159L1027.56 442.055L1027.39 441.954L1027.22 441.855L1027.06 441.76L1026.89 441.667L1026.72 441.578L1026.56 441.491L1026.4 441.406L1026.23 441.325L1026.07 441.247L1025.92 441.171L1025.76 441.098L1025.61 441.028L1025.45 440.96L1025.3 440.896L1025.15 440.834L1025.01 440.775L1024.87 440.718L1024.73 440.664L1024.59 440.613L1024.45 440.564L1024.32 440.517L1024.19 440.474L1024.06 440.432L1023.94 440.393L1023.82 440.356L1023.7 440.322L1023.59 440.29L1023.48 440.259L1023.37 440.231L1023.27 440.205L1023.17 440.181L1023.07 440.159L1022.98 440.139L1022.89 440.12L1022.81 440.104L1022.73 440.088L1022.65 440.075L1022.58 440.062L1022.51 440.052L1022.45 440.042L1022.39 440.034L1022.33 440.027L1022.28 440.021L1022.23 440.016L1022.19 440.011L1022.15 440.008L1022.11 440.005L1022.09 440.003L1022.06 440.002L1022.04 440.001L1022.02 440L1022.01 440L1022 440L1022 440L1022 440L1022.01 440L1022.02 440L1022.03 439.999L1022.05 439.998L1022.08 439.997L1022.1 439.995L1022.14 439.993L1022.18 439.99L1022.22 439.986L1022.26 439.981L1022.31 439.975L1022.37 439.968L1022.43 439.961L1022.49 439.951L1022.56 439.941L1022.63 439.929L1022.7 439.916L1022.78 439.901L1022.87 439.885L1022.95 439.867L1023.04 439.847L1023.14 439.826L1023.24 439.802L1023.34 439.777L1023.44 439.75L1023.55 439.72L1023.67 439.689L1023.78 439.655L1023.9 439.619L1024.02 439.58L1024.15 439.54L1024.28 439.497L1024.41 439.451L1024.54 439.403L1024.68 439.352L1024.82 439.299L1024.96 439.244L1025.11 439.185L1025.26 439.124L1025.4 439.06L1025.56 438.994L1025.71 438.925L1025.87 438.853L1026.02 438.778L1026.18 438.7L1026.34 438.62L1026.51 438.536L1026.67 438.45L1026.84 438.361L1027 438.27L1027.17 438.175L1027.34 438.078L1027.51 437.978L1027.68 437.875L1027.85 437.769L1028.02 437.66L1028.19 437.549L1028.37 437.435L1028.54 437.318L1028.71 437.199L1028.89 437.077L1029.06 436.953L1029.23 436.826L1029.4 436.696L1029.58 436.564L1029.75 436.43L1029.92 436.293L1030.09 436.154L1030.26 436.012L1030.43 435.869L1030.6 435.723L1030.77 435.575L1030.93 435.425L1031.1 435.274L1031.26 435.12L1031.42 434.965L1031.59 434.807L1031.74 434.649L1031.9 434.488L1032.06 434.326L1032.21 434.163L1032.37 433.999L1032.52 433.833L1032.66 433.666L1032.81 433.498L1032.96 433.329L1033.1 433.159L1033.24 432.989L1033.38 432.817L1033.51 432.646L1033.64 432.473L1033.77 432.301L1033.9 432.128L1034.03 431.955L1034.15 431.781L1034.27 431.608L1034.39 431.435L1034.5 431.262L1034.62 431.09L1034.73 430.918L1034.83 430.747L1034.94 430.576L1035.04 430.406L1035.14 430.237L1035.23 430.069L1035.33 429.902L1035.42 429.736L1035.5 429.571L1035.59 429.408L1035.67 429.247L1035.75 429.087L1035.82 428.928L1035.9 428.772L1035.97 428.617L1036.03 428.465L1036.1 428.315L1036.16 428.167L1036.22 428.021L1036.28 427.878L1036.33 427.737L1036.38 427.599L1036.43 427.463L1036.48 427.331L1036.52 427.201L1036.56 427.074L1036.6 426.95L1036.64 426.83L1036.68 426.713L1036.71 426.599L1036.74 426.488L1036.77 426.381L1036.79 426.277L1036.82 426.177L1036.84 426.081L1036.86 425.988L1036.88 425.9L1036.9 425.815L1036.91 425.734L1036.92 425.657L1036.94 425.584L1036.95 425.515L1036.96 425.451L1036.97 425.39L1036.97 425.334L1036.98 425.282L1036.98 425.234L1036.99 425.191L1036.99 425.152L1036.99 425.117L1037 425.087L1037 425.062L1037 425.04L1037 425.023L1037 425.011L1037 425.003L1037 425L1037 425.001L1037 425.007L1037 425.017L1037 425.032L1037 425.051L1037 425.074L1037 425.102L1037.01 425.135L1037.01 425.172L1037.01 425.213L1037.02 425.259L1037.02 425.309L1037.03 425.363L1037.04 425.421L1037.05 425.484L1037.06 425.551L1037.07 425.622L1037.08 425.697L1037.1 425.776L1037.11 425.859L1037.13 425.946L1037.15 426.036L1037.17 426.131L1037.2 426.229L1037.22 426.331L1037.25 426.436L1037.28 426.545L1037.31 426.658L1037.34 426.773L1037.38 426.892L1037.42 427.015L1037.46 427.14L1037.5 427.268L1037.55 427.399L1037.59 427.534L1037.64 427.67L1037.7 427.81L1037.75 427.952L1037.81 428.097L1037.87 428.244L1037.93 428.393L1038 428.544L1038.07 428.698L1038.14 428.853L1038.22 429.011L1038.29 429.17L1038.37 429.331L1038.46 429.493L1038.54 429.657L1038.63 429.822L1038.72 429.989L1038.82 430.156L1038.91 430.325L1039.01 430.494L1039.12 430.665L1039.22 430.836L1039.33 431.008L1039.44 431.18L1039.56 431.353L1039.67 431.526L1039.79 431.699L1039.91 431.872L1040.04 432.045L1040.16 432.218L1040.29 432.391L1040.43 432.563L1040.56 432.735L1040.7 432.907L1040.84 433.078L1040.98 433.248L1041.12 433.417L1041.27 433.586L1041.41 433.753L1041.56 433.92L1041.71 434.085L1041.87 434.249L1042.02 434.411L1042.18 434.572L1042.34 434.732L1042.5 434.89L1042.66 435.046L1042.82 435.2L1042.99 435.353L1043.15 435.504L1043.32 435.653L1043.49 435.799L1043.66 435.944L1043.83 436.086L1044 436.227L1044.17 436.364L1044.34 436.5L1044.51 436.633L1044.69 436.764L1044.86 436.892L1045.03 437.018L1045.2 437.141L1045.38 437.262L1045.55 437.38L1045.72 437.495L1045.9 437.608L1046.07 437.717L1046.24 437.824L1046.41 437.929L1046.58 438.03L1046.75 438.129L1046.92 438.225L1047.09 438.318L1047.25 438.408L1047.42 438.496L1047.58 438.58L1047.74 438.662L1047.9 438.741L1048.06 438.817L1048.22 438.89L1048.37 438.961L1048.52 439.029L1048.67 439.094L1048.82 439.156L1048.97 439.216L1049.11 439.273L1049.25 439.327L1049.39 439.379L1049.53 439.428L1049.66 439.475L1049.79 439.519L1049.92 439.561L1050.04 439.601L1050.16 439.638L1050.28 439.673L1050.39 439.705L1050.5 439.736L1050.61 439.764L1050.71 439.791L1050.81 439.815L1050.91 439.837L1051 439.858L1051.09 439.877L1051.18 439.894L1051.26 439.909L1051.34 439.923L1051.41 439.936L1051.48 439.947L1051.54 439.956L1051.6 439.965L1051.66 439.972L1051.71 439.978L1051.76 439.984L1051.81 439.988L1051.84 439.991L1051.88 439.994L1051.91 439.996L1051.94 439.998L1051.96 439.999L1051.98 439.999L1051.99 440L1052 440L1052 440L1052 440Z" fill="white"/>
<path fill-rule="evenodd" clip-rule="evenodd" d="M1181 359L1181 359L1180.98 359L1180.96 359.001L1180.94 359.002L1180.9 359.003L1180.86 359.006L1180.81 359.009L1180.75 359.013L1180.69 359.019L1180.61 359.026L1180.53 359.034L1180.44 359.045L1180.35 359.057L1180.24 359.071L1180.13 359.087L1180.02 359.105L1179.89 359.126L1179.76 359.149L1179.62 359.175L1179.48 359.204L1179.32 359.235L1179.16 359.27L1179 359.308L1178.83 359.349L1178.65 359.394L1178.47 359.442L1178.28 359.493L1178.08 359.549L1177.88 359.608L1177.67 359.671L1177.46 359.738L1177.24 359.809L1177.01 359.885L1176.79 359.964L1176.55 360.048L1176.31 360.137L1176.07 360.229L1175.82 360.327L1175.57 360.429L1175.32 360.535L1175.06 360.647L1174.79 360.763L1174.53 360.883L1174.26 361.009L1173.98 361.14L1173.71 361.275L1173.43 361.415L1173.14 361.56L1172.86 361.71L1172.57 361.865L1172.28 362.025L1171.99 362.189L1171.7 362.359L1171.41 362.533L1171.11 362.713L1170.81 362.897L1170.52 363.086L1170.22 363.279L1169.92 363.478L1169.62 363.68L1169.32 363.888L1169.02 364.1L1168.72 364.317L1168.42 364.538L1168.12 364.763L1167.82 364.992L1167.52 365.226L1167.22 365.464L1166.93 365.706L1166.63 365.951L1166.34 366.201L1166.05 366.454L1165.76 366.711L1165.47 366.971L1165.18 367.234L1164.9 367.501L1164.62 367.771L1164.34 368.044L1164.07 368.32L1163.79 368.598L1163.52 368.879L1163.26 369.162L1162.99 369.448L1162.73 369.735L1162.47 370.025L1162.22 370.316L1161.97 370.609L1161.73 370.904L1161.48 371.2L1161.24 371.497L1161.01 371.795L1160.78 372.094L1160.56 372.393L1160.33 372.693L1160.12 372.993L1159.9 373.293L1159.7 373.593L1159.49 373.893L1159.29 374.193L1159.1 374.491L1158.91 374.789L1158.73 375.086L1158.55 375.382L1158.37 375.677L1158.2 375.969L1158.04 376.261L1157.88 376.55L1157.72 376.837L1157.57 377.122L1157.43 377.404L1157.29 377.684L1157.15 377.96L1157.02 378.234L1156.89 378.505L1156.77 378.772L1156.66 379.036L1156.54 379.295L1156.44 379.551L1156.33 379.803L1156.24 380.051L1156.14 380.294L1156.06 380.533L1155.97 380.767L1155.89 380.996L1155.82 381.22L1155.74 381.439L1155.68 381.653L1155.61 381.861L1155.55 382.063L1155.5 382.26L1155.45 382.451L1155.4 382.635L1155.35 382.814L1155.31 382.986L1155.27 383.152L1155.24 383.311L1155.21 383.464L1155.18 383.61L1155.15 383.749L1155.13 383.882L1155.11 384.007L1155.09 384.125L1155.07 384.236L1155.06 384.339L1155.05 384.436L1155.04 384.525L1155.03 384.606L1155.02 384.68L1155.01 384.746L1155.01 384.805L1155.01 384.856L1155 384.9L1155 384.935L1155 384.963L1155 384.983L1155 384.995L1155 385L1155 384.997L1155 384.986L1155 384.967L1155 384.94L1155 384.906L1154.99 384.864L1154.99 384.814L1154.99 384.756L1154.98 384.691L1154.97 384.618L1154.97 384.538L1154.96 384.45L1154.94 384.355L1154.93 384.253L1154.91 384.143L1154.9 384.026L1154.88 383.902L1154.85 383.771L1154.83 383.633L1154.8 383.488L1154.77 383.336L1154.73 383.178L1154.7 383.013L1154.65 382.842L1154.61 382.664L1154.56 382.48L1154.51 382.291L1154.46 382.095L1154.4 381.893L1154.33 381.686L1154.27 381.474L1154.2 381.256L1154.12 381.032L1154.04 380.804L1153.96 380.571L1153.87 380.333L1153.78 380.09L1153.68 379.843L1153.58 379.592L1153.47 379.337L1153.36 379.077L1153.25 378.814L1153.13 378.547L1153 378.277L1152.87 378.004L1152.74 377.728L1152.6 377.449L1152.45 377.167L1152.3 376.882L1152.15 376.596L1151.99 376.307L1151.82 376.016L1151.65 375.723L1151.48 375.429L1151.3 375.134L1151.12 374.837L1150.93 374.539L1150.74 374.24L1150.54 373.941L1150.34 373.641L1150.13 373.341L1149.92 373.041L1149.7 372.741L1149.48 372.441L1149.26 372.141L1149.03 371.842L1148.79 371.544L1148.56 371.247L1148.31 370.951L1148.07 370.656L1147.82 370.363L1147.57 370.071L1147.31 369.781L1147.05 369.493L1146.79 369.207L1146.52 368.924L1146.25 368.642L1145.98 368.364L1145.7 368.088L1145.42 367.814L1145.14 367.544L1144.86 367.277L1144.58 367.013L1144.29 366.752L1144 366.495L1143.71 366.241L1143.41 365.991L1143.12 365.745L1142.82 365.502L1142.53 365.264L1142.23 365.029L1141.93 364.799L1141.63 364.573L1141.33 364.351L1141.03 364.134L1140.73 363.921L1140.43 363.713L1140.13 363.51L1139.83 363.31L1139.53 363.116L1139.23 362.927L1138.94 362.742L1138.64 362.562L1138.35 362.386L1138.05 362.216L1137.76 362.051L1137.47 361.89L1137.19 361.734L1136.9 361.584L1136.62 361.438L1136.34 361.297L1136.06 361.161L1135.79 361.03L1135.52 360.903L1135.25 360.782L1134.99 360.665L1134.72 360.553L1134.47 360.445L1134.22 360.343L1133.97 360.245L1133.72 360.151L1133.49 360.062L1133.25 359.977L1133.02 359.897L1132.8 359.821L1132.58 359.749L1132.36 359.681L1132.16 359.618L1131.95 359.558L1131.76 359.502L1131.56 359.45L1131.38 359.401L1131.2 359.356L1131.03 359.314L1130.86 359.276L1130.7 359.241L1130.55 359.209L1130.4 359.179L1130.26 359.153L1130.13 359.129L1130 359.108L1129.88 359.089L1129.77 359.073L1129.67 359.059L1129.57 359.046L1129.48 359.036L1129.4 359.027L1129.33 359.02L1129.26 359.014L1129.2 359.009L1129.15 359.006L1129.1 359.003L1129.07 359.002L1129.04 359.001L1129.02 359L1129.01 359L1129 359L1129 359L1129.01 359L1129.03 358.999L1129.06 358.998L1129.09 358.997L1129.13 358.995L1129.18 358.992L1129.24 358.987L1129.3 358.982L1129.38 358.975L1129.46 358.967L1129.54 358.957L1129.64 358.945L1129.74 358.932L1129.85 358.916L1129.96 358.898L1130.09 358.877L1130.22 358.855L1130.36 358.829L1130.5 358.801L1130.65 358.77L1130.81 358.735L1130.97 358.698L1131.14 358.657L1131.32 358.613L1131.5 358.566L1131.69 358.515L1131.89 358.46L1132.09 358.402L1132.3 358.339L1132.51 358.273L1132.73 358.202L1132.95 358.128L1133.18 358.049L1133.41 357.965L1133.65 357.878L1133.89 357.786L1134.14 357.689L1134.39 357.588L1134.64 357.482L1134.9 357.371L1135.16 357.256L1135.43 357.136L1135.7 357.011L1135.97 356.881L1136.25 356.747L1136.53 356.607L1136.81 356.463L1137.09 356.314L1137.38 356.16L1137.67 356.001L1137.96 355.837L1138.25 355.668L1138.55 355.494L1138.84 355.316L1139.14 355.133L1139.44 354.945L1139.74 354.752L1140.04 354.554L1140.33 354.352L1140.63 354.145L1140.94 353.934L1141.24 353.718L1141.54 353.498L1141.83 353.273L1142.13 353.044L1142.43 352.811L1142.73 352.574L1143.03 352.333L1143.32 352.088L1143.61 351.839L1143.91 351.586L1144.2 351.33L1144.48 351.071L1144.77 350.808L1145.05 350.541L1145.34 350.272L1145.61 350L1145.89 349.724L1146.16 349.446L1146.43 349.166L1146.7 348.883L1146.97 348.598L1147.23 348.31L1147.48 348.021L1147.74 347.73L1147.99 347.437L1148.24 347.143L1148.48 346.847L1148.72 346.55L1148.95 346.252L1149.18 345.954L1149.41 345.655L1149.63 345.355L1149.85 345.055L1150.06 344.754L1150.27 344.454L1150.47 344.154L1150.67 343.855L1150.87 343.556L1151.06 343.258L1151.24 342.961L1151.42 342.665L1151.6 342.37L1151.77 342.077L1151.94 341.786L1152.1 341.496L1152.25 341.209L1152.4 340.923L1152.55 340.641L1152.69 340.361L1152.83 340.083L1152.96 339.809L1153.09 339.538L1153.21 339.27L1153.33 339.006L1153.44 338.745L1153.55 338.489L1153.65 338.236L1153.75 337.988L1153.84 337.744L1153.93 337.504L1154.02 337.27L1154.1 337.04L1154.17 336.815L1154.25 336.595L1154.31 336.381L1154.38 336.172L1154.44 335.968L1154.49 335.771L1154.55 335.579L1154.6 335.393L1154.64 335.214L1154.68 335.041L1154.72 334.874L1154.76 334.713L1154.79 334.56L1154.82 334.412L1154.84 334.272L1154.87 334.139L1154.89 334.013L1154.91 333.893L1154.93 333.781L1154.94 333.676L1154.95 333.579L1154.96 333.489L1154.97 333.406L1154.98 333.331L1154.99 333.263L1154.99 333.204L1154.99 333.151L1155 333.107L1155 333.07L1155 333.041L1155 333.019L1155 333.006L1155 333L1155 333.002L1155 333.012L1155 333.029L1155 333.055L1155 333.088L1155 333.129L1155.01 333.178L1155.01 333.234L1155.02 333.298L1155.02 333.369L1155.03 333.448L1155.04 333.535L1155.05 333.629L1155.07 333.73L1155.08 333.839L1155.1 333.955L1155.12 334.078L1155.14 334.208L1155.17 334.345L1155.2 334.488L1155.23 334.639L1155.26 334.796L1155.3 334.96L1155.34 335.13L1155.38 335.307L1155.43 335.49L1155.48 335.679L1155.54 335.873L1155.59 336.074L1155.66 336.28L1155.72 336.492L1155.79 336.709L1155.87 336.932L1155.94 337.159L1156.03 337.392L1156.12 337.629L1156.21 337.871L1156.3 338.117L1156.4 338.368L1156.51 338.622L1156.62 338.881L1156.73 339.144L1156.85 339.41L1156.98 339.679L1157.11 339.952L1157.24 340.228L1157.38 340.507L1157.53 340.788L1157.67 341.072L1157.83 341.358L1157.99 341.647L1158.15 341.937L1158.32 342.23L1158.49 342.524L1158.67 342.819L1158.85 343.116L1159.04 343.413L1159.23 343.712L1159.43 344.011L1159.63 344.311L1159.84 344.611L1160.05 344.911L1160.26 345.211L1160.48 345.511L1160.71 345.811L1160.94 346.11L1161.17 346.408L1161.41 346.705L1161.65 347.002L1161.89 347.297L1162.14 347.59L1162.39 347.882L1162.65 348.172L1162.91 348.461L1163.17 348.747L1163.44 349.031L1163.71 349.313L1163.98 349.592L1164.25 349.868L1164.53 350.142L1164.81 350.413L1165.09 350.681L1165.38 350.945L1165.67 351.207L1165.96 351.464L1166.25 351.719L1166.54 351.969L1166.83 352.216L1167.13 352.459L1167.43 352.698L1167.72 352.933L1168.02 353.164L1168.32 353.391L1168.62 353.613L1168.92 353.831L1169.22 354.045L1169.52 354.254L1169.82 354.458L1170.12 354.658L1170.42 354.853L1170.72 355.043L1171.02 355.229L1171.31 355.41L1171.61 355.586L1171.9 355.757L1172.19 355.923L1172.48 356.084L1172.77 356.241L1173.05 356.392L1173.34 356.539L1173.62 356.681L1173.89 356.818L1174.17 356.95L1174.44 357.077L1174.71 357.199L1174.97 357.317L1175.23 357.43L1175.49 357.538L1175.74 357.641L1175.99 357.74L1176.24 357.834L1176.48 357.924L1176.71 358.009L1176.94 358.09L1177.17 358.167L1177.39 358.24L1177.6 358.308L1177.81 358.372L1178.02 358.433L1178.21 358.489L1178.41 358.542L1178.59 358.591L1178.77 358.637L1178.95 358.679L1179.11 358.718L1179.27 358.754L1179.43 358.786L1179.58 358.816L1179.72 358.843L1179.85 358.867L1179.98 358.888L1180.1 358.908L1180.21 358.924L1180.32 358.939L1180.41 358.952L1180.5 358.962L1180.59 358.971L1180.66 358.979L1180.73 358.985L1180.79 358.99L1180.84 358.993L1180.89 358.996L1180.93 358.998L1180.96 358.999L1180.98 359L1180.99 359L1181 359L1181 359Z" fill="white"/>
<path fill-rule="evenodd" clip-rule="evenodd" d="M70 49.9999L69.9961 49.9999L69.9844 50.0001L69.9649 50.0006L69.9377 50.0016L69.9026 50.0031L69.8599 50.0055L69.8094 50.0088L69.7513 50.0132L69.6856 50.0188L69.6123 50.0258L69.5314 50.0343L69.4431 50.0445L69.3474 50.0565L69.2443 50.0706L69.1339 50.0867L69.0164 50.105L68.8917 50.1258L68.7601 50.1491L68.6214 50.175L68.476 50.2038L68.3238 50.2354L68.1649 50.2701L67.9996 50.308L67.8278 50.3491L67.6498 50.3936L67.4655 50.4417L67.2753 50.4933L67.0791 50.5487L66.8771 50.6078L66.6695 50.6709L66.4564 50.738L66.238 50.8092L66.0143 50.8846L65.7856 50.9642L65.552 51.0482L65.3136 51.1365L65.0707 51.2294L64.8233 51.3267L64.5717 51.4287L64.316 51.5353L64.0564 51.6466L63.793 51.7627L63.5261 51.8835L63.2558 52.0091L62.9823 52.1395L62.7057 52.2749L62.4262 52.415L62.1441 52.5601L61.8595 52.7101L61.5726 52.865L61.2836 53.0248L60.9926 53.1895L60.6999 53.359L60.4056 53.5334L60.1099 53.7127L59.813 53.8968L59.5151 54.0856L59.2164 54.2792L58.917 54.4775L58.6172 54.6804L58.3171 54.888L58.0169 55.1L57.7167 55.3166L57.4169 55.5375L57.1174 55.7628L56.8186 55.9924L56.5206 56.2261L56.2235 56.4639L55.9275 56.7056L55.6329 56.9513L55.3397 57.2008L55.0481 57.4539L54.7584 57.7107L54.4705 57.9709L54.1848 58.2344L53.9013 58.5012L53.6202 58.771L53.3416 59.0439L53.0657 59.3195L52.7927 59.5979L52.5226 59.8788L52.2556 60.1621L51.9918 60.4477L51.7313 60.7353L51.4743 61.025L51.2208 61.3164L50.9711 61.6095L50.7251 61.904L50.483 62.1999L50.2449 62.4969L50.0109 62.7948L49.781 63.0936L49.5554 63.393L49.3341 63.6928L49.1172 63.993L48.9047 64.2932L48.6968 64.5933L48.4935 64.8932L48.2949 65.1926L48.1009 65.4914L47.9117 65.7894L47.7272 66.0863L47.5476 66.3821L47.3728 66.6765L47.2028 66.9694L47.0378 67.2605L46.8776 67.5497L46.7223 67.8368L46.5719 68.1216L46.4265 68.4039L46.2859 68.6835L46.1502 68.9603L46.0193 69.2341L45.8933 69.5047L45.7721 69.7719L45.6557 70.0356L45.544 70.2955L45.4371 70.5515L45.3347 70.8034L45.237 71.0511L45.1438 71.2944L45.0551 71.5332L44.9708 71.7672L44.8908 71.9963L44.8151 72.2204L44.7436 72.4392L44.6762 72.6528L44.6128 72.8608L44.5533 73.0632L44.4976 73.2599L44.4457 73.4506L44.3974 73.6353L44.3526 73.8139L44.3112 73.9862L44.2731 74.152L44.2381 74.3114L44.2062 74.4641L44.1773 74.6101L44.1511 74.7493L44.1276 74.8815L44.1067 75.0068L44.0881 75.1249L44.0718 75.2358L44.0576 75.3395L44.0454 75.4358L44.0351 75.5247L44.0264 75.6061L44.0193 75.6801L44.0136 75.7464L44.0092 75.8051L44.0058 75.8562L44.0034 75.8995L44.0017 75.9352L44.0007 75.9631L44.0002 75.9832L44 75.9955L44 76L43.9999 75.9967L43.9998 75.9856L43.9993 75.9668L43.9984 75.9401L43.9969 75.9057L43.9946 75.8636L43.9914 75.8138L43.9871 75.7563L43.9816 75.6911L43.9747 75.6184L43.9663 75.5382L43.9562 75.4504L43.9443 75.3553L43.9305 75.2528L43.9145 75.143L43.8964 75.026L43.8758 74.9019L43.8527 74.7708L43.827 74.6328L43.7985 74.4878L43.7671 74.3362L43.7326 74.1779L43.695 74.013L43.6541 73.8418L43.6099 73.6642L43.5622 73.4805L43.5108 73.2907L43.4557 73.0949L43.3969 72.8934L43.3341 72.6863L43.2673 72.4736L43.1965 72.2556L43.1214 72.0323L43.0422 71.804L42.9585 71.5708L42.8705 71.3328L42.778 71.0902L42.681 70.8432L42.5794 70.5919L42.4732 70.3365L42.3623 70.0772L42.2466 69.8141L42.1262 69.5475L42.001 69.2774L41.8709 69.0041L41.736 68.7278L41.5962 68.4486L41.4515 68.1667L41.3019 67.8823L41.1474 67.5956L40.988 67.3067L40.8237 67.0159L40.6545 66.7233L40.4805 66.4291L40.3016 66.1335L40.1179 65.8367L39.9295 65.5389L39.7362 65.2402L39.5383 64.9409L39.3358 64.6411L39.1286 64.341L38.9169 64.0408L38.7007 63.7406L38.4801 63.4407L38.2551 63.1412L38.0259 62.8424L37.7926 62.5443L37.5551 62.2471L37.3136 61.9511L37.0683 61.6563L36.8191 61.363L36.5662 61.0713L36.3098 60.7813L36.0498 60.4933L35.7866 60.2074L35.52 59.9237L35.2504 59.6425L34.9778 59.3637L34.7024 59.0876L34.4243 58.8143L34.1436 58.544L33.8604 58.2767L33.575 58.0126L33.2875 57.7519L32.998 57.4946L32.7067 57.2409L32.4138 56.9908L32.1194 56.7445L31.8236 56.5021L31.5267 56.2637L31.2288 56.0293L30.9301 55.7991L30.6308 55.5731L30.3309 55.3515L30.0308 55.1342L29.7306 54.9215L29.4305 54.7132L29.1306 54.5095L28.8311 54.3105L28.5323 54.1161L28.2342 53.9265L27.9372 53.7417L27.6413 53.5617L27.3468 53.3865L27.0538 53.2161L26.7625 53.0507L26.4732 52.8901L26.1859 52.7345L25.9009 52.5837L25.6184 52.4378L25.3385 52.2969L25.0615 52.1608L24.7875 52.0295L24.5166 51.9031L24.2491 51.7816L23.9852 51.6648L23.725 51.5527L23.4687 51.4454L23.2164 51.3427L22.9683 51.2446L22.7247 51.151L22.4856 51.0619L22.2512 50.9773L22.0217 50.897L21.7972 50.8209L21.5779 50.7491L21.364 50.6813L21.1555 50.6176L20.9526 50.5578L20.7555 50.5019L20.5643 50.4496L20.3791 50.401L20.2 50.356L20.0272 50.3143L19.8609 50.2759L19.701 50.2407L19.5477 50.2086L19.4012 50.1794L19.2615 50.153L19.1287 50.1293L19.0029 50.1082L18.8842 50.0894L18.7727 50.073L18.6685 50.0586L18.5716 50.0463L18.4821 50.0358L18.4 50.027L18.3255 50.0198L18.2585 50.014L18.1992 50.0094L18.1475 50.006L18.1036 50.0035L18.0673 50.0018L18.0388 50.0007L18.0181 50.0002L18.0051 49.9999L18 49.9999L18.0027 49.9999L18.0131 49.9997L18.0314 49.9993L18.0574 49.9984L18.0912 49.997L18.1327 49.9947L18.1819 49.9916L18.2388 49.9874L18.3033 49.982L18.3755 49.9752L18.4551 49.967L18.5422 49.957L18.6368 49.9453L18.7387 49.9316L18.8479 49.9158L18.9643 49.8978L19.0878 49.8775L19.2184 49.8546L19.3559 49.8291L19.5003 49.8008L19.6514 49.7696L19.8092 49.7354L19.9735 49.6981L20.1443 49.6575L20.3214 49.6135L20.5046 49.566L20.6939 49.515L20.8892 49.4602L21.0902 49.4017L21.2969 49.3392L21.5092 49.2727L21.7268 49.2022L21.9496 49.1275L22.1776 49.0486L22.4104 48.9653L22.648 48.8776L22.8902 48.7855L23.1369 48.6889L23.3878 48.5876L23.6429 48.4818L23.9019 48.3712L24.1647 48.256L24.4311 48.1359L24.7008 48.0111L24.9739 47.8814L25.25 47.7468L25.529 47.6074L25.8107 47.4631L26.0949 47.3139L26.3814 47.1598L26.6701 47.0008L26.9608 46.8369L27.2533 46.6681L27.5473 46.4945L27.8428 46.316L28.1395 46.1327L28.4373 45.9446L28.7359 45.7517L29.0351 45.5542L29.3349 45.352L29.635 45.1452L29.9352 44.9338L30.2354 44.718L30.5353 44.4977L30.8348 44.2731L31.1337 44.0443L31.4319 43.8112L31.7292 43.5741L32.0253 43.3329L32.3202 43.0879L32.6136 42.839L32.9054 42.5864L33.1955 42.3302L33.4837 42.0706L33.7698 41.8076L34.0536 41.5413L34.3351 41.2719L34.6141 40.9996L34.8904 40.7244L35.1639 40.4464L35.4345 40.1659L35.702 39.883L35.9663 39.5978L36.2273 39.3104L36.4849 39.0211L36.7389 38.7299L36.9893 38.4371L37.2359 38.1428L37.4786 37.8471L37.7174 37.5503L37.9521 37.2525L38.1826 36.9538L38.4089 36.6545L38.6309 36.3547L38.8485 36.0547L39.0616 35.7544L39.2703 35.4543L39.4743 35.1544L39.6737 34.8549L39.8684 34.556L40.0584 34.2578L40.2436 33.9607L40.424 33.6647L40.5996 33.3701L40.7703 33.077L40.9362 32.7855L41.0971 32.496L41.2532 32.2086L41.4043 31.9234L41.5506 31.6407L41.692 31.3606L41.8284 31.0834L41.96 30.8091L42.0868 30.538L42.2088 30.2702L42.326 30.006L42.4384 29.7455L42.5461 29.4888L42.6492 29.2362L42.7476 28.9878L42.8416 28.7438L42.931 28.5043L43.016 28.2696L43.0966 28.0397L43.173 27.8148L43.2452 27.5951L43.3133 27.3807L43.3773 27.1718L43.4374 26.9684L43.4937 26.7709L43.5462 26.5792L43.5951 26.3935L43.6404 26.2139L43.6824 26.0406L43.721 25.8738L43.7564 25.7133L43.7888 25.5596L43.8182 25.4125L43.8448 25.2722L43.8687 25.1389L43.8901 25.0125L43.909 24.8933L43.9256 24.7812L43.9401 24.6764L43.9526 24.5789L43.9633 24.4888L43.9722 24.4061L43.9795 24.331L43.9855 24.2635L43.9901 24.2035L43.9936 24.1512L43.9962 24.1066L43.998 24.0698L43.9991 24.0407L43.9997 24.0193L43.9999 24.0058L44 24L44 24.002L44.0001 24.0119L44.0005 24.0295L44.0013 24.0549L44.0028 24.0881L44.0049 24.129L44.008 24.1776L44.0121 24.2339L44.0174 24.2978L44.024 24.3693L44.0322 24.4484L44.042 24.5349L44.0535 24.6289L44.0671 24.7302L44.0827 24.8388L44.1005 24.9547L44.1207 25.0776L44.1433 25.2076L44.1686 25.3446L44.1967 25.4884L44.2276 25.639L44.2616 25.7963L44.2987 25.9601L44.339 26.1303L44.3827 26.3069L44.4299 26.4897L44.4807 26.6785L44.5351 26.8733L44.5934 27.0739L44.6555 27.2802L44.7217 27.492L44.7919 27.7092L44.8662 27.9316L44.9448 28.1591L45.0278 28.3916L45.1151 28.6288L45.2068 28.8707L45.3031 29.117L45.404 29.3676L45.5095 29.6223L45.6196 29.881L45.7345 30.1435L45.8542 30.4096L45.9787 30.6791L46.108 30.9519L46.2421 31.2278L46.3812 31.5065L46.5251 31.788L46.6739 32.0721L46.8276 32.3584L46.9862 32.647L47.1497 32.9375L47.3181 33.2298L47.4914 33.5238L47.6695 33.8191L47.8524 34.1157L48.0401 34.4134L48.2326 34.712L48.4297 35.0112L48.6316 35.3109L48.838 35.611L49.049 35.9112L49.2645 36.2114L49.4844 36.5113L49.7086 36.8109L49.9372 37.1099L50.1699 37.4081L50.4067 37.7054L50.6476 38.0017L50.8923 38.2967L51.1409 38.5902L51.3932 38.8822L51.6491 39.1724L51.9084 39.4607L52.1712 39.747L52.4372 40.031L52.7063 40.3127L52.9785 40.5919L53.2534 40.8684L53.5312 41.1422L53.8115 41.413L54.0942 41.6808L54.3793 41.9453L54.6665 42.2066L54.9556 42.4645L55.2467 42.7188L55.5393 42.9694L55.8335 43.2163L56.1291 43.4594L56.4258 43.6984L56.7236 43.9334L57.0222 44.1643L57.3214 44.391L57.6212 44.6133L57.9213 44.8313L58.2215 45.0448L58.5216 45.2538L58.8216 45.4582L59.1211 45.6579L59.4201 45.853L59.7183 46.0434L60.0155 46.229L60.3116 46.4098L60.6063 46.5858L60.8996 46.7569L61.1911 46.9231L61.4808 47.0844L61.7684 47.2409L62.0538 47.3924L62.3367 47.5391L62.617 47.6808L62.8945 47.8177L63.169 47.9497L63.4404 48.0768L63.7084 48.1992L63.9729 48.3167L64.2337 48.4296L64.4907 48.5376L64.7436 48.6411L64.9924 48.7399L65.2367 48.8342L65.4766 48.924L65.7117 49.0093L65.942 49.0903L66.1673 49.167L66.3874 49.2396L66.6022 49.3079L66.8116 49.3723L67.0154 49.4327L67.2134 49.4893L67.4056 49.5421L67.5917 49.5913L67.7718 49.6369L67.9456 49.6791L68.113 49.718L68.2739 49.7537L68.4282 49.7863L68.5758 49.8159L68.7167 49.8427L68.8506 49.8669L68.9775 49.8884L69.0973 49.9075L69.2099 49.9244L69.3153 49.939L69.4134 49.9517L69.5041 49.9624L69.5873 49.9715L69.6631 49.979L69.7312 49.985L69.7918 49.9897L69.8447 49.9934L69.8899 49.996L69.9273 49.9978L69.9571 49.999L69.979 49.9996L69.9932 49.9998L69.9996 49.9999L70 49.9999Z" fill="white"/>
<path fill-rule="evenodd" clip-rule="evenodd" d="M449.812 47.6875C449.812 47.2603 450.159 46.9141 450.586 46.9141H461.414C461.841 46.9141 462.188 47.2603 462.188 47.6875C462.188 48.1147 461.841 48.4609 461.414 48.4609H450.586C450.159 48.4609 449.812 48.1147 449.812 47.6875Z" fill="url(#paint0_linear_1_10244)"/>
<path fill-rule="evenodd" clip-rule="evenodd" d="M449.812 44.3125C449.812 43.8853 450.159 43.5391 450.586 43.5391H461.414C461.841 43.5391 462.188 43.8853 462.188 44.3125C462.188 44.7397 461.841 45.0859 461.414 45.0859H450.586C450.159 45.0859 449.812 44.7397 449.812 44.3125Z" fill="url(#paint1_linear_1_10244)"/>
<path fill-rule="evenodd" clip-rule="evenodd" d="M449.812 40.9375C449.812 40.5103 450.159 40.1641 450.586 40.1641H461.414C461.841 40.1641 462.188 40.5103 462.188 40.9375C462.188 41.3647 461.841 41.7109 461.414 41.7109H450.586C450.159 41.7109 449.812 41.3647 449.812 40.9375Z" fill="url(#paint2_linear_1_10244)"/>
<path fill-rule="evenodd" clip-rule="evenodd" d="M449.812 51.0625C449.812 50.6353 450.159 50.2891 450.586 50.2891H461.414C461.841 50.2891 462.188 50.6353 462.188 51.0625C462.188 51.4897 461.841 51.8359 461.414 51.8359H450.586C450.159 51.8359 449.812 51.4897 449.812 51.0625Z" fill="url(#paint3_linear_1_10244)"/>
<rect x="447.5" y="37.5" width="17" height="17" stroke="white"/>
</g>
<defs>
<filter id="filter0_d_1_10244" x="1057" y="524" width="44" height="41" filterUnits="userSpaceOnUse" color-interpolation-filters="sRGB">
<feFlood flood-opacity="0" result="BackgroundImageFix"/>
<feColorMatrix in="SourceAlpha" type="matrix" values="0 0 0 0 0 0 0 0 0 0 0 0 0 0 0 0 0 0 127 0" result="hardAlpha"/>
<feOffset/>
<feGaussianBlur stdDeviation="6.5"/>
<feComposite in2="hardAlpha" operator="out"/>
<feColorMatrix type="matrix" values="0 0 0 0 1 0 0 0 0 1 0 0 0 0 1 0 0 0 1 0"/>
<feBlend mode="normal" in2="BackgroundImageFix" result="effect1_dropShadow_1_10244"/>
<feBlend mode="normal" in="SourceGraphic" in2="effect1_dropShadow_1_10244" result="shape"/>
</filter>
<linearGradient id="paint0_linear_1_10244" x1="456" y1="46.9141" x2="456" y2="48.4609" gradientUnits="userSpaceOnUse">
<stop stop-color="#FEF3F3"/>
<stop offset="1" stop-color="white" stop-opacity="0"/>
</linearGradient>
<linearGradient id="paint1_linear_1_10244" x1="456" y1="43.5391" x2="456" y2="45.0859" gradientUnits="userSpaceOnUse">
<stop stop-color="#FEF3F3"/>
<stop offset="1" stop-color="white" stop-opacity="0"/>
</linearGradient>
<linearGradient id="paint2_linear_1_10244" x1="456" y1="40.1641" x2="456" y2="41.7109" gradientUnits="userSpaceOnUse">
<stop stop-color="#FEF3F3"/>
<stop offset="1" stop-color="white" stop-opacity="0"/>
</linearGradient>
<linearGradient id="paint3_linear_1_10244" x1="456" y1="50.2891" x2="456" y2="51.8359" gradientUnits="userSpaceOnUse">
<stop stop-color="#FEF3F3"/>
<stop offset="1" stop-color="white" stop-opacity="0"/>
</linearGradient>
<clipPath id="clip0_1_10244">
<rect width="1200" height="569" fill="white"/>
</clipPath>
</defs>
</svg>
