<svg width="40" height="40" viewBox="0 0 40 40" fill="none" xmlns="http://www.w3.org/2000/svg">
<g id="Private">
<path id="Vector" d="M37.3874 19.475C34.225 12.7375 27.4125 8.38753 20 8.38753C18.45 8.38753 16.9375 8.57498 15.4625 8.93753L18.1875 14.0125C18.7625 13.8375 19.375 13.75 20 13.75C23.45 13.75 26.25 16.55 26.25 20C26.25 21.925 25.375 23.65 24 24.8L26.9625 30.2875C31.475 28.5125 35.2625 25.0625 37.3874 20.525L37.6249 20L37.3874 19.475ZM20 26.25C16.55 26.25 13.75 23.45 13.75 20C13.75 18.075 14.625 16.35 16 15.2L13.0375 9.71252C8.52498 11.4875 4.73744 14.9375 2.6125 19.475L2.375 20L2.6125 20.525C5.77496 27.2625 12.5875 31.6125 20 31.6125C21.55 31.6125 23.0625 31.425 24.5375 31.0625L21.8125 25.9875C21.2375 26.1625 20.625 26.25 20 26.25ZM12.35 3.16254L15.4625 8.93753C14.6375 9.1375 13.825 9.40002 13.0375 9.71252L10.15 4.33746L12.35 3.16254Z" fill="white"/>
<path id="Vector_2" d="M18.1875 14.0125L24 24.8C23.3625 25.3375 22.625 25.7375 21.8125 25.9875L16 15.2C16.6375 14.6625 17.375 14.2625 18.1875 14.0125ZM29.85 35.6624L27.65 36.8374L24.5375 31.0625C25.3625 30.8625 26.175 30.6 26.9625 30.2875L29.85 35.6624Z" fill="white"/>
</g>
</svg>
