<svg width="40" height="40" viewBox="0 0 40 40" fill="none" xmlns="http://www.w3.org/2000/svg">
<g id="trade" clip-path="url(#clip0_23_1553)">
<g id="Group">
<path id="Vector" d="M31.1665 11.6667H30.4998C29.7635 11.6667 29.1665 12.2636 29.1665 13V16.1667C29.1665 16.9031 29.7635 17.5 30.4998 17.5H31.1665C31.9029 17.5 32.4998 16.9031 32.4998 16.1667V13C32.4998 12.2636 31.9029 11.6667 31.1665 11.6667Z" fill="black" stroke="white"/>
<path id="Vector_2" fill-rule="evenodd" clip-rule="evenodd" d="M10 25H11.6667V28.3334H10V25ZM16.6667 6.66669H18.3333V10H16.6667V6.66669ZM16.6667 30H18.3333V33.3334H16.6667V30ZM23.3333 10H25V13.3334H23.3333V10ZM23.3333 25.8334H25V29.1667H23.3333V25.8334ZM30 7.50002H31.6667V10.8334H30V7.50002ZM30 18.3334H31.6667V21.6667H30V18.3334ZM10 35H11.6667V38.3334H10V35Z" fill="white"/>
<path id="Vector_3" d="M24.5 14.1667H23.8333C23.097 14.1667 22.5 14.7636 22.5 15.5V23.6667C22.5 24.4031 23.097 25 23.8333 25H24.5C25.2364 25 25.8333 24.4031 25.8333 23.6667V15.5C25.8333 14.7636 25.2364 14.1667 24.5 14.1667Z" fill="black" stroke="white"/>
<path id="Vector_4" d="M17.8335 10.8333H17.1668C16.4304 10.8333 15.8335 11.4303 15.8335 12.1666V27.8333C15.8335 28.5697 16.4304 29.1666 17.1668 29.1666H17.8335C18.5699 29.1666 19.1668 28.5697 19.1668 27.8333V12.1666C19.1668 11.4303 18.5699 10.8333 17.8335 10.8333Z" fill="black" stroke="white"/>
<path id="Vector_5" d="M11.1665 28.8333H10.4998C9.76346 28.8333 9.1665 29.4303 9.1665 30.1667V32.8333C9.1665 33.5697 9.76346 34.1667 10.4998 34.1667H11.1665C11.9029 34.1667 12.4998 33.5697 12.4998 32.8333V30.1667C12.4998 29.4303 11.9029 28.8333 11.1665 28.8333Z" fill="black" stroke="white"/>
</g>
</g>
<defs>
<clipPath id="clip0_23_1553">
<rect width="40" height="40" fill="white"/>
</clipPath>
</defs>
</svg>
